<svg width="3443" height="590" viewBox="0 0 3443 590" fill="none" xmlns="http://www.w3.org/2000/svg">
<g clip-path="url(#clip0_2823_5911)">
<path d="M746.577 4.37637L945.391 332.787V580.691H1144.2V332.787L1337.62 4.37637H1104.44L1051.42 155.082C1051.42 155.082 1048.48 170.791 1041.61 155.082L976.808 4.37637H746.577ZM1532.51 4.37637V580.691H1904.61V400.041H1727.88V4.37637H1532.51ZM2364.09 587.073C2191.78 587.073 2051.88 456.494 2051.88 295.479C2051.88 134.464 2191.78 3.88547 2364.09 3.88547C2536.39 3.88547 2676.3 134.464 2676.3 295.479C2676.3 456.494 2536.39 587.073 2364.09 587.073ZM2255.6 295.479C2255.6 359.787 2304.2 411.331 2364.09 411.331C2423.98 411.331 2472.58 359.296 2472.58 295.479C2472.58 231.171 2423.98 179.627 2364.09 179.627C2304.2 179.627 2255.6 231.662 2255.6 295.479ZM193.335 286.643L367.603 583.146H561.017V6.83086H367.603V305.297L193.335 6.83086H0.902344V583.146H193.335V286.643ZM3074.42 282.225L3248.69 578.728H3442.1V2.41277H3248.69V300.879L3074.42 1.92188H2881.99V578.237H3074.42V282.225Z" fill="white"/>
</g>
<defs>
<clipPath id="clip0_2823_5911">
<rect width="3441.2" height="589.078" fill="white" transform="translate(0.902344 0.460938)"/>
</clipPath>
</defs>
</svg>
